<?xml version="1.0" encoding="utf-8"?>
<!-- Generator: Adobe Illustrator 16.0.3, SVG Export Plug-In . SVG Version: 6.00 Build 0)  -->
<!DOCTYPE svg PUBLIC "-//W3C//DTD SVG 1.1//EN" "http://www.w3.org/Graphics/SVG/1.1/DTD/svg11.dtd">
<svg version="1.1" id="Capa_1" xmlns="http://www.w3.org/2000/svg" xmlns:xlink="http://www.w3.org/1999/xlink" x="0px" y="0px"
	 width="40px" height="40px" viewBox="0 0 40 40" enable-background="new 0 0 40 40" xml:space="preserve">
<circle fill="#7289D9" cx="20" cy="20" r="20"/>
<g>
	<defs>
		<rect id="SVGID_1_" x="8" y="10.64" width="24" height="18.722"/>
	</defs>
	<clipPath id="SVGID_2_">
		<use xlink:href="#SVGID_1_"  overflow="visible"/>
	</clipPath>
	<g clip-path="url(#SVGID_2_)">
		<path fill="#FFFFFF" d="M28.318,12.307c-1.529-0.707-3.171-1.228-4.885-1.526c-0.032-0.005-0.063,0.01-0.08,0.038
			c-0.21,0.378-0.445,0.871-0.608,1.258c-1.843-0.277-3.679-0.277-5.487,0c-0.164-0.396-0.405-0.88-0.618-1.258
			c-0.016-0.027-0.046-0.042-0.078-0.038c-1.715,0.299-3.354,0.818-4.886,1.526c-0.013,0.006-0.023,0.015-0.031,0.028
			c-3.112,4.681-3.964,9.247-3.545,13.755c0.002,0.023,0.013,0.043,0.031,0.057c2.052,1.52,4.041,2.441,5.993,3.051
			c0.031,0.01,0.064-0.002,0.084-0.027c0.461-0.635,0.873-1.305,1.225-2.008c0.022-0.041,0.002-0.092-0.04-0.107
			c-0.654-0.25-1.275-0.553-1.873-0.898c-0.048-0.027-0.052-0.096-0.008-0.129c0.125-0.094,0.251-0.193,0.371-0.293
			c0.022-0.018,0.053-0.021,0.079-0.01c3.928,1.805,8.181,1.805,12.063,0c0.024-0.014,0.056-0.01,0.078,0.01
			c0.12,0.1,0.245,0.199,0.373,0.293c0.043,0.033,0.04,0.102-0.008,0.129c-0.597,0.352-1.219,0.648-1.873,0.898
			c-0.042,0.016-0.061,0.066-0.04,0.107c0.359,0.703,0.771,1.371,1.225,2.008c0.02,0.025,0.054,0.037,0.085,0.027
			c1.961-0.609,3.949-1.531,6.001-3.051c0.019-0.014,0.03-0.033,0.031-0.055c0.502-5.214-0.837-9.742-3.547-13.756
			C28.343,12.321,28.331,12.313,28.318,12.307z M16.02,23.344c-1.182,0-2.156-1.092-2.156-2.435c0-1.344,0.956-2.437,2.156-2.437
			c1.212,0,2.176,1.103,2.157,2.437C18.177,22.252,17.222,23.344,16.02,23.344z M23.996,23.344c-1.183,0-2.157-1.092-2.157-2.435
			c0-1.344,0.956-2.437,2.157-2.437c1.21,0,2.175,1.103,2.156,2.437C26.152,22.252,25.206,23.344,23.996,23.344z"/>
	</g>
</g>
</svg>
