<svg xmlns="http://www.w3.org/2000/svg" width="40" height="40" viewBox="0 0 40 40">
    <g transform="translate(-285 -835)">
        <circle cx="20" cy="20" r="20" fill="#32a3ce" transform="translate(285 835)"/>
        <path fill="#fff" d="M18.965 7.659c.013.188.013.376.013.563A12.241 12.241 0 0 1 6.653 20.548 12.242 12.242 0 0 1 0 18.6a8.961 8.961 0 0 0 1.046.054 8.676 8.676 0 0 0 5.378-1.851 4.34 4.34 0 0 1-4.051-3 5.463 5.463 0 0 0 .818.067 4.582 4.582 0 0 0 1.14-.148A4.333 4.333 0 0 1 .858 9.47v-.054a4.363 4.363 0 0 0 1.958.55 4.339 4.339 0 0 1-1.341-5.794 12.314 12.314 0 0 0 8.933 4.533 4.89 4.89 0 0 1-.107-.992 4.336 4.336 0 0 1 7.5-2.964A8.529 8.529 0 0 0 20.548 3.7a4.32 4.32 0 0 1-1.9 2.387 8.685 8.685 0 0 0 2.495-.671 9.312 9.312 0 0 1-2.173 2.24z" transform="translate(295.232 843.62)"/>
    </g>
</svg>
